# xmcd
#
# Track frame offsets: 
#        150
#        20837
#        33765
#        45937
#        55115
#        67983
#        81823
#        92963
#        107137
#        116081
#        126331
#        136266
#        146833
#        159910
#        172164
#        184622
#        196115
#        206527
#        218947
#        230669
#        242829
#        252675
#        265573
#        277514
#
# Disc length: 3870 seconds
#
# Revision: 1
# Processed by: cddbd v1.5.2PL0 Copyright (c) Steve Scherf et al.
# Submitted via: ExactAudioCopyFreeDBPlugin 1.0
#
DISCID=570f1c18
DTITLE=Various Artist - Cracking The Cosimo Code:  '60's New Orleans 
DTITLE=R&B and Soul
DYEAR=2014
DGENRE=Rhyythm and Blues
TTITLE0=Jesse Hill - Ooh Poo Pah Doo
TTITLE1=Eddie Bo - I Got to Know
TTITLE2=Earl King - Trick Bag
TTITLE3=Blazer Boy - New Orleans Twist
TTITLE4=Chris Kenner - Something You Got
TTITLE5=The Party Boys - We Got a Party (Part 2)
TTITLE6=Reggie Hall - The Joke
TTITLE7=Danny White - Kiss Tomorrow Goodbye
TTITLE8=Barbara Lynn - Second Fiddle Girl
TTITLE9=Willie West - You Told Me
TTITLE10=The Tick-Tocks - I'm Gonna Get You Yet
TTITLE11=Berna-Dean - This is the City
TTITLE12=Oliver Morgan - Who Shot the LaLa
TTITLE13=Dave Bartholomew and His Orchestra - The Monkey Speaks His Mind
TTITLE14=Ronnie Barron - Did She Mention My Name
TTITLE15=Lee Dorsey - Get Out of My Life, Woman
TTITLE16=June Gardner - 99 Plus 1
TTITLE17=Willie Tee - Teasin' You
TTITLE18=Robert Parker - Barefootin'
TTITLE19=Aaron Neville - Tell It Like It Is
TTITLE20=Earl King - Poor Sam
TTITLE21=Johnny Adams - Release Me
TTITLE22=Eddie Bo and Inez Cheatham - Lover and A Friend
TTITLE23=Joe Haywood - Play a Cornbread Song for Me and My Baby
EXTD=
EXTT0=
EXTT1=
EXTT2=
EXTT3=
EXTT4=
EXTT5=
EXTT6=
EXTT7=
EXTT8=
EXTT9=
EXTT10=
EXTT11=
EXTT12=
EXTT13=
EXTT14=
EXTT15=
EXTT16=
EXTT17=
EXTT18=
EXTT19=
EXTT20=
EXTT21=
EXTT22=
EXTT23=
PLAYORDER=
